# xmcd CD database file
#
# Track frame offsets:
#	150
#	16830
#	32305
#	46097
#	58345
#	77405
#	94625
#	109779
#	124775
#	144052
#	154260
#	168492
#
# Disc length: 2531 seconds
#
# Revision: 1
# Processed by: cddbd v1.4PL0 Copyright (c) Steve Scherf et al.
# Submitted via: CDex 1.50
#
DISCID=8609e10c
DTITLE=Bellamy Brothers - Tropical Christmas
DYEAR=1996
DGENRE=Christmas
TTITLE0=Merry Christmas And A Happy New Year
TTITLE1=Tropical Christmas
TTITLE2=Jingle Bells (A Cowboy`s Holiday)
TTITLE3=White Christmas
TTITLE4=We All Get Crazy At Christmas
TTITLE5=Light Up The Candles
TTITLE6=Rudolph The Red-Nosed Reindeer
TTITLE7=Old Hippie Christmas
TTITLE8=Our Love Is Like Christmas
TTITLE9=Rockin` Around The Christmas Tree
TTITLE10=It`s So Close To Christmas (And I Am So Far From Home)
TTITLE11=Silent Night
EXTD=YEAR: 1996
EXTT0=
EXTT1=
EXTT2=
EXTT3=
EXTT4=
EXTT5=
EXTT6=
EXTT7=
EXTT8=
EXTT9=
EXTT10=
EXTT11=
PLAYORDER=
